<?xml version="1.0" encoding="UTF-8" standalone="no"?><!DOCTYPE svg PUBLIC "-//W3C//DTD SVG 1.1//EN" "http://www.w3.org/Graphics/SVG/1.1/DTD/svg11.dtd"><svg width="100%" height="100%" viewBox="0 0 100 100" version="1.1" xmlns="http://www.w3.org/2000/svg" xmlns:xlink="http://www.w3.org/1999/xlink" xml:space="preserve" xmlns:serif="http://www.serif.com/" style="fill-rule:evenodd;clip-rule:evenodd;stroke-linejoin:round;stroke-miterlimit:2;"><path d="M8.333,41.504c0,-2.529 1.15,-4.925 3.13,-6.504c7.112,-5.692 24.562,-19.654 33.333,-26.667c3.042,-2.437 7.367,-2.437 10.408,0c8.771,7.013 26.221,20.975 33.333,26.667c1.98,1.579 3.13,3.975 3.13,6.504l0,45.996c0,2.208 -0.879,4.329 -2.442,5.892c-1.562,1.562 -3.683,2.441 -5.892,2.441l-66.666,0c-2.209,0 -4.33,-0.879 -5.892,-2.441c-1.563,-1.563 -2.442,-3.684 -2.442,-5.892l0,-45.996Z" style="fill:none;fill-rule:nonzero;stroke:#fff;stroke-width:8.33px;"/><path d="M68.75,47.917l-25,25l-12.5,-12.5" style="fill:none;fill-rule:nonzero;stroke:#fff;stroke-width:8.33px;stroke-linecap:round;stroke-miterlimit:4;"/></svg>